<?xml version="1.0" encoding="iso-8859-1"?>
<!-- Generator: Adobe Illustrator 19.0.0, SVG Export Plug-In . SVG Version: 6.00 Build 0)  -->
<svg version="1.1" id="Capa_1" xmlns="http://www.w3.org/2000/svg" xmlns:xlink="http://www.w3.org/1999/xlink" x="0px" y="0px"
	 viewBox="0 0 512 512" style="enable-background:new 0 0 512 512;" xml:space="preserve">
<g>
	<g>
		<path d="M443.017,60.827C439.594,56.977,405.667,20.5,256,20.5c-150,0-183.538,36.431-186.953,40.254
			C24.519,108.4,0,170.427,0,235.5c0,68.38,26.629,132.667,74.98,181.019C123.333,464.871,187.62,491.5,256,491.5
			s132.667-26.629,181.02-74.981C485.371,368.167,512,303.88,512,235.5C512,170.463,487.504,108.467,443.017,60.827z
			 M139.353,61.579C171.321,54.435,212.747,50.5,256,50.5s84.679,3.935,116.647,11.079c34.493,7.709,44.942,16.017,47.677,18.921
			c-2.734,2.904-13.184,11.212-47.677,18.921C340.679,106.565,299.253,110.5,256,110.5s-84.679-3.935-116.647-11.079
			C104.859,91.712,94.41,83.404,91.675,80.5C94.41,77.596,104.859,69.288,139.353,61.579z M107,292.5c0-11.046,8.954-20,20-20
			s20,8.954,20,20c0,11.046-8.954,20-20,20S107,303.546,107,292.5z M367,345.073c-13.785,0-25,11.215-25,25
			c0,13.785,11.215,25,25,25v30c-18.753,0-35.336-9.441-45.269-23.813l-0.633,0.633c-19.831,19.832-46.199,30.754-74.246,30.754
			s-54.415-10.922-74.246-30.754l-31.82-31.82l31.82-31.82c19.832-19.832,46.199-30.754,74.246-30.754
			c28.046,0,54.415,10.922,74.246,30.754l0.633,0.633c9.932-14.372,26.515-23.813,45.269-23.813V345.073z M160,238.5
			c0-11.046,8.954-20,20-20s20,8.954,20,20s-8.954,20-20,20S160,249.546,160,238.5z M425.878,181.313
			c-13.761,4.725-26.758,9.187-53.38,9.187c-26.623,0-39.62-4.463-53.381-9.187c-14.762-5.068-31.493-10.813-63.122-10.813
			c-31.628,0-48.358,5.745-63.12,10.813c-13.76,4.725-26.756,9.187-53.377,9.187c-26.621,0-39.618-4.462-53.378-9.187
			c-11.982-4.114-25.263-8.673-46.754-10.245c7.158-24.053,18.336-46.796,33.15-67.362C75.339,106.24,111.333,140.5,256,140.5
			c144.333,0,180.659-34.259,183.482-36.791c14.813,20.566,25.992,43.309,33.151,67.36
			C451.141,172.64,437.86,177.199,425.878,181.313z"/>
	</g>
</g>
<g>
</g>
<g>
</g>
<g>
</g>
<g>
</g>
<g>
</g>
<g>
</g>
<g>
</g>
<g>
</g>
<g>
</g>
<g>
</g>
<g>
</g>
<g>
</g>
<g>
</g>
<g>
</g>
<g>
</g>
</svg>
