<svg id="Layer_1" height="512" viewBox="0 0 512 512" width="512" xmlns="http://www.w3.org/2000/svg" data-name="Layer 1"><path d="m431.47 304.7a24.945 24.945 0 1 1 -24.87 24.94 24.9 24.9 0 0 1 24.87-24.94z" fill="#8cb6f8"/><path d="m410.78 246.53a13.165 13.165 0 1 1 -13.12 13.17 13.151 13.151 0 0 1 13.12-13.17z" fill="#8cb6f8"/><path d="m395.63 467.35v27.65h-338.66v-56.3a11.992 11.992 0 0 1 10.94-11.99c.21-.02.43-.04.65-.05 5.67-.4 12.53.11 18.51 3.39 12.12 6.65 32.51 17.12 68.2 15.81 60.8-2.24 78.99 19.43 97.09 18.69 15.18-.63 84.1-23.97 124.01-17.29 1.38.22 2.72.49 4.03.79a19.791 19.791 0 0 1 15.23 19.3z" fill="#aa7a65"/><path d="m358.43 104.26c18.84 5.77 32.99 14.12 31.61 18.65 0 .01-.01.02-.01.03-1.44 4.49-17.79 3.47-36.59-2.3-17.92-5.49-31.85-13.8-31.99-18.5v-.08a2.1 2.1 0 0 1 .09-.61c1.38-4.52 18.05-2.97 36.89 2.81z" fill="#8fa7bc"/><path d="m390.03 122.94a148.7 148.7 0 0 1 -6.99 24.32c-.67.14-32.84 6.56-64.87-21.5a97.233 97.233 0 0 0 3.28-23.62c.14 4.7 14.07 13.01 31.99 18.5 18.8 5.77 35.15 6.79 36.59 2.3z" fill="#5b6a77"/><path d="m381.77 327.05a5.975 5.975 0 0 1 -.06 1.19c-.51 3.32-2.39 10.38-6.67 19.26h-.01c-32.65 14.97-57.43-12.46-57.43-12.46 3.11-4.86 5.93-9.58 8.34-14.05l.03.01s21.77 27.47 55.8 6.05z" fill="#6a6cba"/><path d="m380.71 324.07a5.58 5.58 0 0 1 1.06 2.98c-34.03 21.42-55.8-6.05-55.8-6.05l-.03-.01c1.04-1.92 2-3.8 2.88-5.62.96-2 1.82-3.93 2.56-5.78a78.776 78.776 0 0 1 16.02-1.03c20.55.92 30.12 11.13 33.31 15.51z" fill="#b09dd8"/><path d="m382.61 203.54a84.426 84.426 0 0 1 -3.72 23.11c-37.91 11.32-72.61-4.03-72.61-4.03l4.52-19.06c-.66 5.01 16.39 9.17 36.09 9.17 19.73 0 35.72-4.12 35.72-9.19z" fill="#da6292"/><path d="m375.04 347.5a117.1 117.1 0 0 1 -21.17 30.16c-15.58 16.18-23.63 27.99-40.84 42.09a53.314 53.314 0 0 0 -19.17 4.37c-14.8 6.56-32.44 3.21-45.49-1.24 0 0 44.09-48.56 69.23-87.84 0 0 24.78 27.43 57.43 12.46z" fill="#988dcd"/><path d="m318.17 125.76c32.03 28.06 64.2 21.64 64.87 21.5a172.166 172.166 0 0 1 -26.48 47.42c-3.07-.22-6.32-.34-9.67-.34-19.11 0-34.42 4.14-35.98 8.75l5.16-21.76 4.94-20.8c.79-1.79.3-4.07-1.06-6.1a34.182 34.182 0 0 0 -11-10.09c4.5-5.14 7.38-11.94 9.22-18.58z" fill="#75889b"/><path d="m356.56 194.68c15.03 1.09 26.05 4.64 26.05 8.86 0 5.07-15.99 9.19-35.72 9.19-19.7 0-36.75-4.16-36.09-9.17v-.02l.11-.45c1.56-4.61 16.87-8.75 35.98-8.75 3.35 0 6.6.12 9.67.34z" fill="#e599b9"/><path d="m334.61 295.2a9.14 9.14 0 0 0 -2.88-6.66c-13.25-11.58-25.34-18.36-35.84-22.15v-.01l10.39-43.76s34.7 15.35 72.61 4.03c-7.99 27.72-26.46 57.67-31.49 81.91a78.776 78.776 0 0 0 -16.02 1.03c2.27-5.63 3.46-10.54 3.23-14.39z" fill="#e07da6"/><path d="m331.38 309.59c-.74 1.85-1.6 3.78-2.56 5.78-52.49 6.95-83.98-34.02-85.43-35.95 3.5-6.38 6.99-11.13 10.37-13.53 0 0 36.34 48.17 80.85 29.31.23 3.85-.96 8.76-3.23 14.39z" fill="#5b6a77"/><path d="m331.73 288.54a9.14 9.14 0 0 1 2.88 6.66c-44.51 18.86-80.85-29.31-80.85-29.31s16.21-8.87 42.13.5c10.5 3.79 22.59 10.57 35.84 22.15z" fill="#8fa7bc"/><path d="m328.82 315.37c-.88 1.82-1.84 3.7-2.88 5.62-2.41 4.47-5.23 9.19-8.34 14.05-25.14 39.28-69.23 87.84-69.23 87.84a190.972 190.972 0 0 0 -38.35-9.04 80.313 80.313 0 0 1 -8.67-1.51v-.01s13.21-59.13 29-102.68c4.23-11.67 8.64-22.22 13.04-30.22 1.45 1.93 32.94 42.9 85.43 35.95z" fill="#75889b"/><path d="m321.01 160.53c-.65 1.51-2.23 2.68-4.95 3.06-33.91 4.69-57.84-4.62-62.75-14a5.513 5.513 0 0 1 -.65-2.17c-.13-1.96 1.01-3.77 3.67-4.77 22.01-8.25 40.58-5.47 52.62 1.69a34.182 34.182 0 0 1 11 10.09c1.36 2.03 1.85 4.31 1.06 6.1z" fill="#b09dd8"/><path d="m321.01 160.53-4.94 20.8c-41.02 9.08-63.15-9.59-63.7-10.06a188.239 188.239 0 0 0 .28-23.85h.01a5.513 5.513 0 0 0 .65 2.17c4.91 9.38 28.84 18.69 62.75 14 2.72-.38 4.3-1.55 4.95-3.06z" fill="#6a6cba"/><path d="m243.39 279.42c-4.4 8-8.81 18.55-13.04 30.22h-.01a382.389 382.389 0 0 1 -.22-44.78s18.79-46 22.25-93.59c.55.47 22.68 19.14 63.7 10.06l-5.16 21.76a2.46 2.46 0 0 0 -.11.45v.02l-4.52 19.06-10.39 43.76v.01c-25.92-9.37-42.13-.5-42.13-.5-3.38 2.4-6.87 7.15-10.37 13.53z" fill="#988dcd"/><path d="m296.78 55.91a13.16 13.16 0 1 1 -13.11 13.16 13.136 13.136 0 0 1 13.11-13.16z" fill="#8cb6f8"/><path d="m252.37 171.27c-3.46 47.59-22.25 93.59-22.25 93.59 1-22.21 2.76-40.63-.16-56.52a62.779 62.779 0 0 0 -4.41-14.54c-5.88-13.12-22.9-19.93-40.29-21.1v-.01c-.03-.54-1.19-21.66-13.56-51.25a418.031 418.031 0 0 1 -20.66-64.45s57.25 13.34 94.27-10.4c.1 7.07.17 16.12.17 27.43 0 35.31 7.16 73.24 7.16 73.24 0 .05.01.11.01.16a188.239 188.239 0 0 1 -.28 23.85z" fill="#75889b"/><path d="m244.76 25.43s.33 6.14.55 21.16c-37.02 23.74-94.27 10.4-94.27 10.4-3.24-13.76-4.56-22.48-4.56-22.48h.01c1.75 6.01 23.74 8.89 50.14 6.43 26.34-2.45 47.39-9.3 48.11-15.51z" fill="#5b6a77"/><path d="m244.75 24.84a2.338 2.338 0 0 1 -.01.59c-.72 6.21-21.77 13.06-48.11 15.51-26.4 2.46-48.39-.42-50.14-6.43a2.378 2.378 0 0 1 -.11-.53c-.59-6.37 20.95-13.58 48.12-16.1s49.66.59 50.25 6.96z" fill="#8fa7bc"/><path d="m230.34 309.64h.01c-15.79 43.55-29 102.68-29 102.68v.01c-6.11-1.44-11.88-3.73-15.73-7.33-5.07-4.75-11.82-6.83-17.99-7.63 0 0 1.89-40.8-7.73-76.69-1.1-4.09-2.74-11.4-4.63-20.56-1.25-6.05-2.6-12.9-3.97-20.17a.857.857 0 0 0 -.05-.27.425.425 0 0 0 -.02-.11c-4.03-21.44-8.2-46.41-10.25-64.86 0 0 56.23 42.31 88.98-6.37 2.92 15.89 1.16 34.31.16 56.52a382.389 382.389 0 0 0 .22 44.78z" fill="#e07da6"/><path d="m225.55 193.8a62.779 62.779 0 0 1 4.41 14.54c-32.75 48.68-88.98 6.37-88.98 6.37-1.12-10.06-1.61-18.18-1.12-22.75 1.31 1.26 45.78 43.51 85.69 1.84z" fill="#da6292"/><path d="m225.55 193.8c-39.91 41.67-84.38-.58-85.69-1.84a10.39 10.39 0 0 1 .69-3.02c5.42-11.84 25.3-17.56 44.71-16.25v.01c17.39 1.17 34.41 7.98 40.29 21.1z" fill="#e599b9"/><path d="m159.9 320.68c9.62 35.89 7.73 76.69 7.73 76.69a57.84 57.84 0 0 0 -16.31.27s-5.64.61-15.69 2.27c-1.79-6.46-6.93-17.18-18.78-31.98a189.842 189.842 0 0 1 -28.23-48.65s34.28 9.22 66.65-19.16c1.89 9.16 3.53 16.47 4.63 20.56z" fill="#988dcd"/><path d="m151.3 279.95c1.37 7.27 2.72 14.12 3.97 20.17-32.37 28.38-66.65 19.16-66.65 19.16a127.331 127.331 0 0 1 -5.88-18.23c1.44 4.5 17.8 3.47 36.6-2.29 18.33-5.62 32.49-14.19 31.96-18.81z" fill="#6a6cba"/><path d="m151.3 279.95c.53 4.62-13.63 13.19-31.96 18.81-18.8 5.76-35.16 6.79-36.6 2.29 0-.01-.01-.02-.01-.03-1.37-4.52 12.78-12.87 31.62-18.65s35.5-7.33 36.88-2.8a.425.425 0 0 1 .02.11 2.558 2.558 0 0 1 .05.27z" fill="#b09dd8"/><path d="m108.75 98.82a29.03 29.03 0 1 1 -28.94 29.03 28.98 28.98 0 0 1 28.94-29.03z" fill="#8cb6f8"/><ellipse cx="68.79" cy="212.04" fill="#8cb6f8" rx="13.12" ry="13.16"/><path d="m376.37 447.26c-39.91-6.68-108.83 16.66-124.01 17.29-18.1.74-36.29-20.93-97.09-18.69-35.69 1.31-56.08-9.16-68.2-15.81-5.98-3.28-12.84-3.79-18.51-3.39 0 0 14.17-16.04 40.42-21.66s42.34-7.36 42.34-7.36 22.04-4.12 34.3 7.36c5.66 5.3 15.48 7.75 24.4 8.84a190.972 190.972 0 0 1 38.35 9.04c13.05 4.45 30.69 7.8 45.49 1.24 27.31-12.11 64.59 2.17 82.51 23.14z" fill="#e1b7a3"/><path d="m89.46 431.348q-1.245-.667-2.39-1.3c-5.98-3.28-12.84-3.79-18.51-3.39-.22.01-.44.03-.65.05a11.992 11.992 0 0 0 -10.94 11.992v56.3h30v-56.3a12.058 12.058 0 0 1 2.49-7.352z" fill="#7f5c4f"/><path d="m173.843 398.631c-11.012-3.139-22.523-.991-22.523-.991s-16.1 1.74-42.34 7.36-40.42 21.66-40.42 21.66c5.67-.4 12.53.11 18.51 3.39 1.054.578 2.175 1.187 3.359 1.813 4.636-4.163 25.433-21.914 48.551-26.863 15.651-3.352 27.691-5.323 34.863-6.369z" fill="#bf9888"/><g fill="#284268"><path d="m108.747 162.883a35.032 35.032 0 1 0 -34.935-35.031 35.023 35.023 0 0 0 34.935 35.031zm0-58.063a23.032 23.032 0 1 1 -22.935 23.032 23.01 23.01 0 0 1 22.935-23.032z"/><path d="m49.672 212.039a19.118 19.118 0 1 0 19.118-19.161 19.161 19.161 0 0 0 -19.118 19.161zm26.235 0a7.118 7.118 0 1 1 -7.117-7.161 7.148 7.148 0 0 1 7.117 7.161z"/><path d="m296.783 88.229a19.162 19.162 0 1 0 -19.118-19.162 19.161 19.161 0 0 0 19.118 19.162zm0-26.323a7.162 7.162 0 1 1 -7.118 7.161 7.148 7.148 0 0 1 7.118-7.161z"/><path d="m431.465 298.7a30.946 30.946 0 1 0 30.863 30.946 30.939 30.939 0 0 0 -30.863-30.946zm0 49.891a18.946 18.946 0 1 1 18.863-18.945 18.925 18.925 0 0 1 -18.863 18.944z"/><path d="m410.78 278.857a19.161 19.161 0 1 0 -19.117-19.157 19.16 19.16 0 0 0 19.117 19.157zm0-26.322a7.161 7.161 0 1 1 -7.117 7.161 7.148 7.148 0 0 1 7.117-7.161z"/><path d="m192.262 467.325h-89.162a6 6 0 1 0 0 12h89.162a6 6 0 0 0 0-12z"/><path d="m82.929 467.325h-5.146a6 6 0 1 0 0 12h5.146a6 6 0 1 0 0-12z"/><path d="m381.765 442.21c-.748-.174-1.514-.329-2.283-.481-9.727-10.663-23.827-19.417-39.055-24.172a86.72 86.72 0 0 0 -12.612-2.939c6.182-5.97 11.321-11.762 16.645-17.769 4.2-4.735 8.536-9.63 13.732-15.027 25.056-26.02 29.278-51.584 29.445-52.66a11.546 11.546 0 0 0 -2.071-8.626c-3.653-5.017-12.769-14.526-30.643-17.285 3.1-10.673 8.362-22.443 13.884-34.783 9.735-21.756 19.8-44.252 19.8-64.933 0-8.012-10.311-11.822-21.01-13.622 22.461-32.169 28.115-64.534 28.363-66.013 2.529-12.2-24.035-21.781-35.771-25.379-7.051-2.163-30.773-8.831-40.027-3.911a8.546 8.546 0 0 0 -4.355 5.093 8.032 8.032 0 0 0 -.348 2.405v.043.123c.02 6.432-1.5 23.335-8.277 34.342-12.78-5.823-30.22-7.4-50.324-.523-2.088-13.493-5.377-38.5-5.377-62.072 0-33.652-.64-47.249-.717-48.778a9.394 9.394 0 0 0 -.036-.957c-.878-9.515-15.5-11.542-20.31-12.207-9.935-1.376-22.887-1.44-36.47-.178s-26.3 3.712-35.817 6.9c-4.6 1.54-18.6 6.225-17.723 15.735a9.091 9.091 0 0 0 .184 1.132 416.675 416.675 0 0 0 25.573 88.088 183.035 183.035 0 0 1 12.361 42.772c-21.036.3-37.989 8.032-43.428 19.922-1.25 2.732-4.178 9.13 5.231 65.935 1.024 6.187 2.115 12.451 3.223 18.579-10.916-.125-25.653 4.049-30.956 5.676-11.815 3.622-38.657 13.3-35.714 25.627h-.014c.3 1.4 7.6 34.806 35.3 69.418 8.331 10.4 12.845 18.189 15.3 23.548-5.686 1.023-12.3 2.3-19.75 3.9a87.3 87.3 0 0 0 -41.982 21.821 18.125 18.125 0 0 0 -14.77 17.746v56.3a6 6 0 0 0 6 6h338.662a6 6 0 0 0 6-6v-27.647a25.66 25.66 0 0 0 -19.863-25.143zm-32.217-68.71c-5.368 5.575-9.791 10.566-14.068 15.392-7.818 8.821-14.626 16.5-24.821 25.027a58.842 58.842 0 0 0 -19.234 4.718c-10.119 4.488-22.078 3.555-32.265 1.13 8.173-9.3 23.069-26.619 37.738-45.527q12.813-16.514 21.826-29.946c8.3 6.736 21.388 13.607 36.714 13.607a51.076 51.076 0 0 0 7.073-.509 114.486 114.486 0 0 1 -12.963 16.108zm-183.855-54.374c-1.781-6.65-5.059-22.087-8.437-40.006-.006-.049-.02-.1-.027-.146-1.661-8.816-3.346-18.224-4.889-27.485-1.643-9.862-2.9-18.122-3.845-25.046 9.565 5.168 24.268 11.32 40.054 11.32a56.84 56.84 0 0 0 9.431-.772 51.531 51.531 0 0 0 27.462-13.935c.345 9.077-.171 19.08-.755 30.208-.848 16.162-1.8 34.445-.414 55.539-3.427 9.532-7.179 21-11.26 34.85-7.494 25.431-13.459 49.963-16.079 61.109a21.74 21.74 0 0 1 -7.216-4.144 35.156 35.156 0 0 0 -15.957-8.195c.178-12.299-.244-44.098-8.068-73.297zm79.019-29.045c10.909 11.358 35.785 32.1 72.029 32.1.555 0 1.119-.018 1.679-.028-16.148 27.86-48.153 67.371-71.9 93.812a194.858 194.858 0 0 0 -35.774-8.076c-.742-.091-1.463-.192-2.175-.3 8.582-37.117 23.073-89.089 36.141-117.508zm29.477 2.545c13.006 8.6 26.312 12.935 39.357 12.935a58.493 58.493 0 0 0 13.6-1.619c-.6 1.811-1.364 3.759-2.286 5.83-19.5 1.862-38.061-2.993-55.227-14.478a99.876 99.876 0 0 1 -19-16.542 46.616 46.616 0 0 1 2.76-4.041 113.7 113.7 0 0 0 20.796 17.915zm-9.878-23.832c11.027-2.035 33.238-1.5 61.988 22.987-14.593 4.15-29.774 1.145-45.221-8.987a100.55 100.55 0 0 1 -16.767-14zm106.257 74.086c-21.225 8.581-38.371-2.9-45.273-8.8.715-1.163 1.411-2.311 2.075-3.434a49.154 49.154 0 0 0 11.361 6.918 44 44 0 0 0 17.507 3.645 48.011 48.011 0 0 0 16.263-2.942c-.553 1.433-1.194 2.976-1.933 4.613zm2.95-18.075c-20.326 10.029-34.666.261-40.271-4.873q1.255-2.511 2.294-4.852c8.982-1.018 27.242-1.434 37.977 9.725zm-15.665-61.239c-6.129 13.7-11.955 26.725-15.177 38.938q-1.387.033-2.826.118a28.747 28.747 0 0 0 .757-7.776 14.971 14.971 0 0 0 -4.929-10.826c-11.829-10.335-22.836-17.062-32.747-21.327l7.617-32.094a127.053 127.053 0 0 0 38.92 6.238 111.753 111.753 0 0 0 20.371-1.859c-3.421 9.422-7.731 19.08-11.986 28.588zm15.285-60.031c-4.92 1.586-13.876 3.2-26.252 3.2-12 0-21.027-1.532-26.188-3.056 5.121-1.658 14.151-3.337 26.188-3.337 12.375-.003 21.332 1.608 26.252 3.193zm-16.469-93.542c10.685 3.277 18.377 6.925 22.939 9.719-5.338-.245-13.743-1.534-24.412-4.805a99.085 99.085 0 0 1 -23.046-9.987 114.807 114.807 0 0 1 24.519 5.073zm-30.27 5.5c9.218 5.721 21.486 9.726 25.28 10.889 12.6 3.861 22.286 5.3 29.17 5.3.33 0 .637-.012.955-.018-.806 2.888-1.854 6.318-3.188 10.147-8.151.748-30.489.652-53.719-18.228.654-2.836 1.14-5.571 1.503-8.092zm-5.366 20.277c20.828 15.447 40.895 18.238 52.663 18.238h.158a163.946 163.946 0 0 1 -20.088 34.5c-2.774-.131-5.17-.166-6.88-.166-3.847 0-16.567.235-27.03 3.045l6.941-29.246a12.63 12.63 0 0 0 -1.861-11.053 37.907 37.907 0 0 0 -7.542-8.183 52.372 52.372 0 0 0 3.639-7.137zm1.978 80.814a125.233 125.233 0 0 0 23.875 2.15c5.621 0 18.538-.366 28.524-3.344q-.587 3.16-1.416 6.4c-26.276 6.791-50.747.389-60.657-2.937l1.1-4.639a54.65 54.65 0 0 0 8.574 2.368zm-8.1-58.892c-30.9 4.2-50.638-3.886-55.53-9.776 25.843-9.316 47.419-2.216 55.535 9.774zm-56.089 4.727a60 60 0 0 0 13.426 5.243 100.735 100.735 0 0 0 26.1 3.19 132.265 132.265 0 0 0 14.23-.792l-1.462 6.159c-28.816 5.341-46.528-3.859-52.551-7.833q.176-2.986.262-5.969zm-1.38 19.123c7.612 3.883 19.943 8.294 36.723 8.294a102.223 102.223 0 0 0 13.952-.978l-16.572 69.82c-24.289-6.663-39.707 1.423-40.666 1.948a5.828 5.828 0 0 0 -.6.373c-2.268 1.612-7.138 5.074-14.678 20.369.074-5.261.243-10.333.456-15.219 2.648-6.662 16.776-43.718 21.39-84.609zm-62.389-157.691c21.067-1.96 35.491-.179 41.5 1.747-5.555 3-19.409 7.411-40.484 9.369s-35.492.179-41.5-1.746c5.555-3.003 19.408-7.411 40.484-9.37zm-40.367 21.829c2.447.562 4.644.868 6.027 1.059a131.183 131.183 0 0 0 17.707 1.08c5.937 0 12.279-.3 18.763-.9 13.584-1.263 26.3-3.711 35.816-6.895a65.479 65.479 0 0 0 6.142-2.335c.037 1.662.073 3.505.108 5.551-29.2 16.679-70.8 10.883-83.219 8.631-.505-2.242-.951-4.311-1.344-6.191zm22.545 73.443a405.935 405.935 0 0 1 -18.131-54.565 194.875 194.875 0 0 0 25.1 2.134q1.8.036 3.559.036c20.169 0 37.481-3.376 51.657-10.055.04 5.07.065 10.835.065 17.348 0 33.958 6.385 69.6 7.187 73.938 1.4 25.361-3.618 52.743-9.225 74.385-.434-11.233-2.109-21.4-6.416-31-3.637-8.11-10.933-14.705-21.1-19.074a72.6 72.6 0 0 0 -19.176-5.034c-1.051-8.295-4.219-25.867-13.52-48.113zm2.559 59.387h.285c19.241.071 32.243 6.774 37.916 14.278-9.406 8.636-19.739 13.125-30.775 13.328-18.288.3-34.222-11.011-40.432-16.085 4.463-6.865 17.61-11.521 33.006-11.521zm6.619 39.614c.308 0 .621 0 .93-.008 12.842-.214 24.776-4.823 35.586-13.709.229.861.437 1.735.631 2.616-7.451 10.195-16.7 16.291-27.516 18.125-20.992 3.565-42.728-9.391-49.389-13.808-.269-2.615-.471-4.9-.619-6.889 9.185 6.218 23.677 13.673 40.377 13.673zm-70.3 69.984a114.819 114.819 0 0 1 24.519-5.073 99.042 99.042 0 0 1 -23.046 9.987c-10.67 3.272-19.074 4.561-24.413 4.805 4.561-2.794 12.253-6.442 22.939-9.719zm-24.561 21.682c.13 0 .249.008.381.008 6.883 0 16.575-1.441 29.17-5.3 3.974-1.219 17.249-5.555 26.574-11.718q.51 2.588 1.008 5.043c-23.682 19.17-47.465 17.542-55.61 16.242-.571-1.529-1.071-2.958-1.523-4.275zm29.988 54.394a184.19 184.19 0 0 1 -23.211-37.551c1.3.069 2.678.112 4.152.112a83.992 83.992 0 0 0 48.93-15.933c1.064 4.857 1.989 8.783 2.695 11.419 7.1 26.488 7.749 56.145 7.66 68.709a62.945 62.945 0 0 0 -11.293.758c-.936.105-4.685.546-10.815 1.492-2.68-6.69-7.913-16.257-18.118-29.006zm-11.3 46.681c25.576-5.475 41.577-7.242 41.736-7.26s.306-.039.456-.066c.19-.037 19.326-3.3 29.092 5.839 5.718 5.353 15.063 8.858 27.773 10.417a185.965 185.965 0 0 1 37.14 8.763c13.47 4.589 33.055 8.5 49.859 1.047 16.446-7.29 43.11-4.15 63.415 10.466-27 .1-59.464 7.815-82.739 13.352-11.2 2.664-20.869 4.965-24.851 5.129-5.143.222-10.822-2.045-18.692-5.167-15.069-5.98-37.84-15.023-78.373-13.523-35.277 1.3-54.671-9.349-65.092-15.072a32.587 32.587 0 0 0 -6.487-2.655 77.988 77.988 0 0 1 26.76-11.27zm279.392 78.135h-326.662v-50.3a6.029 6.029 0 0 1 5.447-6.011c4.35-.365 10.614-.207 15.769 2.623 10.622 5.833 32.722 17.967 71.309 16.545 38-1.413 58.525 6.74 73.506 12.684 8.9 3.532 15.934 6.33 23.612 6 5.139-.213 14.364-2.407 27.133-5.444 29.036-6.908 72.915-17.349 99.3-11.2a13.711 13.711 0 0 1 10.586 13.456z"/></g></svg>